<svg xmlns="http://www.w3.org/2000/svg" xml:space="preserve" width="3.93701in" height="3.93701in" version="1.1" style="shape-rendering:geometricPrecision; text-rendering:geometricPrecision; image-rendering:optimizeQuality; fill-rule:evenodd; clip-rule:evenodd" viewBox="0 0 3937.01 3937.01" xmlns:xlink="http://www.w3.org/1999/xlink">
 <defs>
  <style type="text/css">
   
    .fil5 {fill:#003497}
    .fil4 {fill:#610069}
    .fil6 {fill:#67B5E5}
    .fil1 {fill:#9EC248}
    .fil0 {fill:#D1384A}
    .fil3 {fill:#F0B535}
    .fil7 {fill:#F2C665}
    .fil2 {fill:#4B4B4D;fill-opacity:0.129412}
   
  </style>
 </defs>
 <g id="Layer_x0020_1">
  <metadata id="CorelCorpID_0Corel-Layer"></metadata>
  <g id="_2843839166928">
   <path class="fil0" d="M715.59 2364c-148.05,-133.41 -239.33,-550.78 -33.52,-805.02 -101.49,335.32 323.42,228.37 281.79,12.37 211.85,357.44 -504.3,349.7 -248.27,792.64z"></path>
   <ellipse class="fil1" cx="894.74" cy="2023.56" rx="34.39" ry="36.64"></ellipse>
   <path class="fil1" d="M804.71 2364.68c-135.04,-180.15 -67.14,-307.13 31.12,-412.78 -75.33,201.38 126.17,169.46 130.82,104.74 64.7,149.58 -217.15,35.54 -161.94,308.04z"></path>
   <path class="fil2" d="M804.71 2364.68c-135.04,-180.15 -67.14,-307.13 31.12,-412.78 -75.33,201.38 126.17,169.46 130.82,104.74 64.71,149.58 -217.15,35.54 -161.94,308.04z"></path>
   <path class="fil2" d="M894.74 1986.92c19,0 34.39,16.41 34.39,36.64 0,20.23 -15.39,36.64 -34.39,36.64 -18.99,0 -34.39,-16.41 -34.39,-36.64 0,-20.23 15.39,-36.64 34.39,-36.64z"></path>
   <path class="fil3" d="M850.4 2381.02c305.13,-20.56 508.8,-457.25 241.1,-733.98 216.65,321.83 -79.31,415.24 -149.11,249.65 -78.7,114.2 335.07,291.95 -91.99,484.33z"></path>
   <path class="fil4" d="M2567.63 2184.08c41.46,0 75.06,34.77 75.06,77.64 0,42.87 -33.6,77.64 -75.06,77.64 -41.45,0 -75.06,-34.77 -75.06,-77.64 0,-42.87 33.6,-77.64 75.06,-77.64zm0 22.37c29.51,0 53.42,24.75 53.42,55.26 0,30.51 -23.91,55.26 -53.42,55.26 -29.5,0 -53.42,-24.75 -53.42,-55.26 0,-30.51 23.91,-55.26 53.42,-55.26z"></path>
   <path class="fil5" d="M2231.66 1709.87c109.63,0 198.55,89.89 198.55,200.79 0,110.83 -88.92,200.72 -198.55,200.72 -109.7,0 -198.62,-89.89 -198.62,-200.72 0,-110.9 88.92,-200.79 198.62,-200.79zm-0.02 69.59c71.64,0 129.73,58.73 129.73,131.18 0,72.41 -58.09,131.14 -129.73,131.14 -71.67,0 -129.76,-58.73 -129.76,-131.14 0,-72.45 58.09,-131.18 129.76,-131.18z"></path>
   <path class="fil6" d="M559.18 2306.6c-148.05,-133.41 -238.49,-330.46 -126.72,-554.09 -23.55,260.3 254.37,183.15 203.06,24.01 153.75,252.56 -277.43,192.02 -76.34,530.07z"></path>
   <ellipse class="fil6" cx="520.9" cy="1821.73" rx="40.4" ry="43.05"></ellipse>
   <ellipse class="fil0" cx="805.45" cy="1660.95" rx="50.72" ry="54.04"></ellipse>
   <ellipse class="fil7" cx="1086.16" cy="1869.97" rx="44.57" ry="47.49"></ellipse>
   <path class="fil5" d="M1565.83 1756.82c-95.76,-118.28 -272.34,-13.76 -182.56,112.44 46.16,50.67 109.11,89.67 125.7,121.73 22.73,77.2 -106.63,55.13 -140.79,-7.92l-21.81 66.72c43.07,73.9 137.89,79.85 188.53,48.49 25.3,-16.77 69.62,-61.02 30.93,-149.58 -30.79,-44.99 -68.81,-69.34 -105.74,-101.11 -89.61,-71.01 40.5,-92.78 92.77,-23.72l12.97 -67.04z"></path>
   <polygon class="fil5" points="1648.89,1715.28 1648.22,2110.69 1715.63,2110.69 1716.31,1943.1 1897.44,1943.8 1898.12,2110 1966.21,2109.3 1966.89,1714.94 1895.39,1714.24 1896.21,1868.13 1714.96,1867.06 1714.7,1714.94"></polygon>
   <path class="fil5" d="M2496.1 1713.16l1.32 396.56 121.62 -0.7c104.55,-3.68 171.94,-138.59 64.46,-210.99 28.36,-9.16 85.29,-148.9 -64.46,-184.19l-122.94 -0.68zm68.09 230.56l-0.75 94.02 65.37 -0.77c28.05,3.63 75.65,-68.93 -1.5,-94.04l-63.13 0.79zm-0.75 -157.74l0 88.57 54.1 -0.77c31.05,-14.51 51.59,-63.97 -1.49,-87.8l-52.61 0z"></path>
   <polygon class="fil5" points="2810.48,1715.28 2809.81,2110.69 2877.22,2110.69 2877.9,1943.1 3059.03,1943.8 3059.71,2110 3127.8,2109.3 3128.48,1714.94 3056.98,1714.24 3057.8,1868.13 2876.55,1867.06 2876.29,1714.94"></polygon>
   <path class="fil5" d="M3329.67 1714.4l-151.72 395.34 75.23 -0.09 31.89 -82.26 160 0.54 33.12 82.11 73.32 0 -153.45 -395.81 -68.39 0.16zm34.75 101.99l-55.69 136.78 108.24 -0.65 -52.55 -136.13z"></path>
   <polygon class="fil4" points="1390.32,2187.67 1416.29,2187.19 1446.7,2246.45 1475.72,2187.9 1500.96,2187.67 1457.65,2267.59 1457.44,2334.52 1433.83,2334.33 1434.85,2267.16"></polygon>
   <path class="fil4" d="M1605.27 2236.23l17.47 0 1.43 61.17c0.71,30.71 44.65,25.7 44.53,0.36l-0.35 -61.53 18.88 -0.38 0.99 68.12c0.64,44.46 -81.89,44.27 -82.28,2.42l-0.66 -70.17z"></path>
   <path class="fil4" d="M1712.91 2235.98l0 98.9 20.81 0 -0.31 -65.19c7.99,-11.94 17.98,-18.3 31.64,-12.1l3.04 -23.33c-13.58,-3.57 -25.67,8.6 -35.06,17.17l0.16 -15.39 -20.27 -0.06z"></path>
   <path class="fil4" d="M1533.56 2234.51c28.55,0 51.72,23.42 51.72,52.31 0,28.86 -23.17,52.28 -51.72,52.28 -28.59,0 -51.75,-23.42 -51.75,-52.28 0,-28.9 23.17,-52.31 51.75,-52.31zm0 19c18.18,0 32.93,14.91 32.93,33.31 0,18.37 -14.74,33.28 -32.93,33.28 -18.22,0 -32.96,-14.91 -32.96,-33.28 0,-18.41 14.74,-33.31 32.96,-33.31z"></path>
   <path class="fil4" d="M3350.01 2234.51c28.55,0 51.72,23.42 51.72,52.31 0,28.86 -23.17,52.28 -51.72,52.28 -28.59,0 -51.75,-23.42 -51.75,-52.28 0,-28.9 23.17,-52.31 51.75,-52.31zm0 19c18.18,0 32.93,14.91 32.93,33.31 0,18.37 -14.74,33.28 -32.93,33.28 -18.22,0 -32.96,-14.91 -32.96,-33.28 0,-18.41 14.74,-33.31 32.96,-33.31z"></path>
   <polygon class="fil4" points="1833.74,2187.51 1833.2,2333.98 1855.5,2335.33 1856.02,2264.8 1920.04,2264.8 1920.04,2334.26 1941.28,2334.26 1941.8,2187.51 1920.3,2187.78 1920.3,2245.01 1854.98,2245.01 1854.46,2188.05"></polygon>
   <path class="fil4" d="M1980.14 2292.54l76.52 0.43c3.2,-88.65 -105.48,-67.69 -96.57,-2.53 7.36,65.71 78.57,53.81 94.53,24.53l-15.35 -10.36c-22.78,28.34 -53.52,21.16 -59.11,-12.07zm-1.23 -13.96c6.82,-44.16 60.31,-34.8 56.06,-0.43l-56.06 0.43z"></path>
   <path class="fil4" d="M2149.36 2249.86l0.45 -14.08 20.84 0 0.54 99.12 -22.19 -0.81 -0.35 -10.51c-22.77,25.41 -77.25,15.96 -77.31,-38.17 -2.57,-43.94 47.04,-68.3 78.03,-35.56zm-29.18 2.96c16.17,0 29.3,15.34 29.3,34.27 0,18.93 -13.13,34.26 -29.3,34.26 -16.19,0 -29.3,-15.33 -29.3,-34.26 0,-18.93 13.11,-34.27 29.3,-34.27z"></path>
   <polygon class="fil4" points="2189.91,2186.77 2212.96,2187.6 2212.16,2334.24 2189.91,2335.06"></polygon>
   <path class="fil4" d="M2237.58 2210.19l-0.5 25.67 -13.91 0.11 -0.3 17.76 14.1 0.95 0.28 53.77c2.73,35.78 28.46,27.62 45.08,27.66l-0.59 -17.7c-10.77,1.04 -21.95,4.56 -24.05,-14.31l0 -50.36 24.35 0.63 0 -18.97 -23.74 0.61 -0.61 -26.11 -20.11 0.3z"></path>
   <path class="fil4" d="M2291.7 2334.26l21.41 0.63 0 -56.44c9.24,-29.98 40.08,-39.8 43.73,-1.56l-0.31 58.01 21.41 -0.63 0.59 -71.98c-5.91,-28.88 -40.11,-40.68 -64.6,-12.95l0.3 -61.69 -22.89 0.36 0.37 146.26z"></path>
   <polygon class="fil4" points="2401.85,2307.57 2390.35,2359.9 2404.68,2367 2422.62,2313.81"></polygon>
   <path class="fil4" d="M2660.4 2235.91l19.68 0 1.88 66.84c12.12,23.22 35.01,18.86 42.46,0l-0.02 -65.62 21.15 0 1.18 57.07c1.25,60.15 -86.05,52.85 -86.17,2.8l-0.16 -61.1z"></path>
   <path class="fil4" d="M2768.44 2235.46l21 0.16 -0.07 13.72c12.11,-9.32 23.76,-20.4 35.26,-14.85l-5.85 24.91c-7.1,-12.57 -20.41,1.13 -28.41,7.65l0.05 66.23 -21.71 0.36 -0.26 -98.19z"></path>
   <polygon class="fil4" points="2904.06,2334.61 2880.49,2334.61 2900.79,2186.54 2919.63,2186.91 2964.59,2302 3006.64,2187.29 3026.94,2188.03 3046.88,2334.61 3025.13,2334.99 3011.71,2230.77 2972.2,2334.61 2957.33,2334.24 2915.66,2229.64"></polygon>
   <polygon class="fil4" points="3059.92,2235.64 3080.22,2235.64 3080.59,2333.48 3061.01,2334.61"></polygon>
   <polygon class="fil4" points="3259.76,2235.08 3281.57,2235.43 3282.54,2334.65 3259.43,2334.33"></polygon>
   <path class="fil4" d="M3151 2260.98l11.78 -11.78c-6.55,-16.57 -69.39,-28.37 -58.84,24.71 6.65,10.4 17.46,13.26 26.71,18.35 17.61,8.59 13.18,21.84 7.46,27.14 -7.29,6.75 -22.09,-1.44 -30.81,-12.27l-12.69 10.24c15.44,24.62 39,23.72 56.96,14.3 15.04,-9.77 22.78,-36.3 -5.61,-52.35 -7.56,-5.48 -36.31,-8.73 -17.75,-28 6.53,-3 17.82,0.63 22.78,9.66z"></path>
   <path class="fil4" d="M3228.35 2260.75l11.78 -11.78c-6.55,-16.57 -69.4,-28.37 -58.84,24.71 6.65,10.4 17.46,13.25 26.71,18.35 17.61,8.59 13.18,21.84 7.46,27.14 -7.29,6.75 -22.09,-1.44 -30.81,-12.27l-12.69 10.24c15.44,24.62 39,23.72 56.96,14.3 15.04,-9.77 22.78,-36.3 -5.61,-52.35 -7.56,-5.48 -36.31,-8.73 -17.75,-28 6.53,-3 17.82,0.63 22.78,9.67z"></path>
   <path class="fil4" d="M3439.38 2235.5l-21.57 0.48 0.47 98.94 21.24 -0.95 0.14 -59.68c13.13,-30.89 34.91,-28.52 43.57,-6.3l-0.47 65.71 22.28 0.25 -0.23 -70.08c0.24,-24.84 -38.93,-51.56 -64.72,-11.89l-0.71 -16.48z"></path>
   <ellipse class="fil4" cx="3276.7" cy="2210.68" rx="13.21" ry="13.49"></ellipse>
   <ellipse class="fil4" cx="3070.25" cy="2210.68" rx="13.21" ry="13.49"></ellipse>
   <path class="fil2" d="M1146.52 1931.39c25.52,25.41 47.14,53.82 64.06,84.54 -29,188.82 -176.1,352.7 -360.19,365.1 427.06,-192.38 13.28,-370.13 91.99,-484.33 40.1,95.13 154.83,104.75 204.13,34.7z"></path>
   <path class="fil2" d="M1043.46 1856.31c26.4,13.82 50.94,30.01 73.25,48.22 -7.98,8.01 -18.73,12.92 -30.56,12.92 -24.61,0 -44.57,-21.27 -44.57,-47.49 0,-4.74 0.66,-9.33 1.87,-13.65z"></path>
   <path class="fil2" d="M819.51 1802.42c46.22,0 90.74,6.28 132.5,17.87 -123.66,145.96 -414.1,236.33 -236.42,543.7 -95.03,-85.63 -166.65,-288.23 -151.36,-489.61 71.58,-45.24 159.81,-71.97 255.28,-71.97z"></path>
   <path class="fil2" d="M402.35 2076.22c19.28,-59.98 55.4,-113.9 103.69,-157.71 54.69,16.32 121.27,-20.08 133.73,-82.41 6.89,-2.72 13.88,-5.31 20.96,-7.72 67.31,193.83 -287.53,165.54 -101.54,478.21 -70.63,-63.64 -128.13,-141.78 -156.83,-230.37z"></path>
  </g>
 </g>
</svg>
