<svg width="313" height="90" viewBox="0 0 313 90" fill="none" xmlns="http://www.w3.org/2000/svg">
<path fill-rule="evenodd" clip-rule="evenodd" d="M35.2042 82.6456C20.9003 69.796 12.2109 29.5072 31.9959 5.0127C22.2372 37.2705 63.1439 26.9641 59.1335 6.21735C79.5868 40.7506 10.6068 39.9475 35.2042 82.6456Z" fill="#D1384A"/>
<path d="M52.4514 53.3333C54.2973 53.3333 55.7934 51.7751 55.7934 49.8532C55.7934 47.9312 54.2973 46.373 52.4514 46.373C50.6057 46.373 49.1094 47.9312 49.1094 49.8532C49.1094 51.7751 50.6057 53.3333 52.4514 53.3333Z" fill="#9EC248"/>
<path fill-rule="evenodd" clip-rule="evenodd" d="M43.7617 82.7797C30.7945 65.3793 37.3449 53.1989 46.7026 43.0264C39.4839 62.4345 58.8677 59.3561 59.2688 53.0651C65.6855 67.387 38.5481 56.4113 43.7617 82.7797Z" fill="#9EC248"/>
<path fill-rule="evenodd" clip-rule="evenodd" d="M43.7617 82.7797C30.7945 65.3793 37.3449 53.1989 46.7026 43.0264C39.4839 62.4345 58.8677 59.3561 59.2688 53.0651C65.6855 67.387 38.5481 56.4113 43.7617 82.7797Z" fill="#4B4B4D" fill-opacity="0.1294"/>
<path fill-rule="evenodd" clip-rule="evenodd" d="M52.4514 46.373C54.323 46.373 55.7934 47.9792 55.7934 49.8532C55.7934 51.7271 54.323 53.3333 52.4514 53.3333C50.58 53.3333 49.1094 51.7271 49.1094 49.8532C49.1094 47.9792 50.7135 46.373 52.4514 46.373Z" fill="#4B4B4D" fill-opacity="0.1294"/>
<path fill-rule="evenodd" clip-rule="evenodd" d="M48.1719 84.2518C77.582 82.2442 97.0996 40.2153 71.4326 13.5791C92.2871 44.6322 63.8127 53.6002 57.1287 37.6722C49.5088 48.6478 89.346 65.7806 48.1719 84.2518Z" fill="#F0B535"/>
<path fill-rule="evenodd" clip-rule="evenodd" d="M213.539 65.3789C217.55 65.3789 220.758 68.7251 220.758 72.8746C220.758 77.0239 217.55 80.3702 213.539 80.3702C209.529 80.3702 206.32 77.0239 206.32 72.8746C206.32 68.7251 209.529 65.3789 213.539 65.3789ZM213.539 67.5206C216.346 67.5206 218.619 69.9299 218.619 72.8746C218.619 75.8192 216.346 78.2285 213.539 78.2285C210.731 78.2285 208.46 75.8192 208.46 72.8746C208.325 69.796 210.598 67.5206 213.539 67.5206Z" fill="#610069"/>
<path fill-rule="evenodd" clip-rule="evenodd" d="M181.187 19.6025C191.748 19.6025 200.304 28.3028 200.304 39.0107C200.304 49.7188 191.748 58.4191 181.187 58.4191C170.626 58.4191 162.07 49.7188 162.07 39.0107C162.07 28.3028 170.626 19.6025 181.187 19.6025ZM181.187 26.295C188.139 26.295 193.619 31.9166 193.619 38.8768C193.619 45.8371 188.004 51.4588 181.187 51.4588C174.236 51.4588 168.754 45.8371 168.754 38.8768C168.621 31.9166 174.236 26.295 181.187 26.295Z" fill="#003497"/>
<path fill-rule="evenodd" clip-rule="evenodd" d="M20.2338 77.158C5.92975 64.3084 -2.75958 45.3016 8.06867 23.752C5.79608 48.7818 32.5325 41.4201 27.5863 26.0273C42.2913 50.3881 0.849836 44.4986 20.2338 77.158Z" fill="#67B5E5"/>
<path d="M16.49 34.5936C18.6312 34.5936 20.3669 32.7359 20.3669 30.4442C20.3669 28.1526 18.6312 26.2949 16.49 26.2949C14.349 26.2949 12.6133 28.1526 12.6133 30.4442C12.6133 32.7359 14.349 34.5936 16.49 34.5936Z" fill="#67B5E5"/>
<path d="M43.8956 20.1386C46.6272 20.1386 48.8418 17.8013 48.8418 14.9184C48.8418 12.0354 46.6272 9.69824 43.8956 9.69824C41.1638 9.69824 38.9492 12.0354 38.9492 14.9184C38.9492 17.8013 41.1638 20.1386 43.8956 20.1386Z" fill="#D1384A"/>
<path d="M70.8989 39.5462C73.2615 39.5462 75.1767 37.5087 75.1767 34.9953C75.1767 32.4819 73.2615 30.4443 70.8989 30.4443C68.5363 30.4443 66.6211 32.4819 66.6211 34.9953C66.6211 37.5087 68.5363 39.5462 70.8989 39.5462Z" fill="#F2C665"/>
<path fill-rule="evenodd" clip-rule="evenodd" d="M117.019 24.1537C107.795 12.7765 90.8176 22.8153 99.507 34.9957C103.919 39.8142 110.068 43.6958 111.672 46.7744C113.811 54.27 101.379 52.1285 98.1702 45.9713L96.0312 52.3961C100.176 59.4902 109.266 60.0257 114.212 57.0809C116.618 55.4747 120.896 51.1915 117.153 42.6251C114.212 38.3419 110.469 35.9327 106.993 32.854C98.3039 26.0277 110.87 23.8862 115.95 30.5786L117.019 24.1537Z" fill="#003497"/>
<path fill-rule="evenodd" clip-rule="evenodd" d="M125.039 20.1378V58.2851H131.456L131.589 42.0891L148.968 42.223L149.102 58.1512H155.652V20.1378L148.834 20.0039V34.8613L131.456 34.7274V20.1378H125.039Z" fill="#003497"/>
<path fill-rule="evenodd" clip-rule="evenodd" d="M206.586 19.8701L206.719 58.1511L218.483 58.0173C228.509 57.6158 235.059 44.6323 224.632 37.6721C227.307 36.7352 232.786 23.3502 218.483 19.8701H206.586ZM213.136 42.0892L213.002 51.1909L219.286 51.0572C221.958 51.4587 226.504 44.3646 219.151 41.9553L213.136 42.0892ZM213.136 26.9642V35.5306L218.35 35.3967C221.291 34.0581 223.295 29.2396 218.215 26.9642H213.136Z" fill="#003497"/>
<path fill-rule="evenodd" clip-rule="evenodd" d="M236.93 20.1378L236.797 58.2851H243.347V42.0891L260.859 42.223V58.1512H267.41L267.543 20.1378L260.593 20.0039L260.726 34.8613L243.214 34.7274V20.1378H236.93Z" fill="#003497"/>
<path fill-rule="evenodd" clip-rule="evenodd" d="M286.798 20.0039L272.227 58.1512H279.445L282.52 50.254H297.893L301.101 58.1512H308.186L293.482 20.0039H286.798ZM290.14 29.9089L284.792 43.0261H295.22L290.14 29.9089Z" fill="#003497"/>
<path fill-rule="evenodd" clip-rule="evenodd" d="M100.176 65.6475H102.716L105.657 71.2691L108.464 65.6475H110.87L106.726 73.4108L106.592 79.8355H104.32L104.454 73.2769L100.176 65.6475Z" fill="#610069"/>
<path fill-rule="evenodd" clip-rule="evenodd" d="M120.895 70.332H122.632L122.766 76.2214C122.9 79.166 127.044 78.7645 127.044 76.2214V70.332H128.916L129.049 76.8906C129.049 81.1738 121.162 81.1738 121.162 77.1584L120.895 70.332Z" fill="#610069"/>
<path fill-rule="evenodd" clip-rule="evenodd" d="M131.188 70.3319V79.8352H133.193V73.5442C133.995 72.3397 134.931 71.8042 136.267 72.3397L136.535 70.0641C135.198 69.6626 134.129 70.8672 133.193 71.6703V70.198L131.188 70.3319Z" fill="#610069"/>
<path fill-rule="evenodd" clip-rule="evenodd" d="M113.942 70.1982C116.75 70.1982 118.889 72.4736 118.889 75.2845C118.889 78.0954 116.616 80.3708 113.942 80.3708C111.135 80.3708 108.996 78.0954 108.996 75.2845C108.996 72.4736 111.269 70.1982 113.942 70.1982ZM113.942 72.0722C115.68 72.0722 117.151 73.5445 117.151 75.2845C117.151 77.0246 115.68 78.497 113.942 78.497C112.204 78.497 110.734 77.0246 110.734 75.2845C110.734 73.4106 112.204 72.0722 113.942 72.0722Z" fill="#610069"/>
<path fill-rule="evenodd" clip-rule="evenodd" d="M288.802 70.1982C291.61 70.1982 293.748 72.4736 293.748 75.2845C293.748 78.0954 291.475 80.3708 288.802 80.3708C285.995 80.3708 283.855 78.0954 283.855 75.2845C283.855 72.4736 285.995 70.1982 288.802 70.1982ZM288.802 72.0722C290.541 72.0722 292.011 73.5445 292.011 75.2845C292.011 77.0246 290.541 78.497 288.802 78.497C287.064 78.497 285.594 77.0246 285.594 75.2845C285.594 73.4106 287.064 72.0722 288.802 72.0722Z" fill="#610069"/>
<path fill-rule="evenodd" clip-rule="evenodd" d="M142.82 65.6475V79.7016L144.959 79.8355V73.143H151.109V79.8355H153.247V65.6475H151.242V71.1352H144.959L144.825 65.6475H142.82Z" fill="#610069"/>
<path fill-rule="evenodd" clip-rule="evenodd" d="M156.991 75.82H164.343C164.611 67.2537 154.183 69.2613 154.985 75.5523C155.654 81.8433 162.605 80.7725 164.077 77.9616L162.605 77.0246C160.466 79.7016 157.525 79.0324 156.991 75.82ZM156.857 74.4815C157.525 70.1983 162.605 71.1352 162.205 74.4815H156.857Z" fill="#610069"/>
<path fill-rule="evenodd" clip-rule="evenodd" d="M173.298 71.6706V70.3322H175.305V79.8356L173.165 79.7017V78.6308C171.025 81.0403 165.679 80.1033 165.679 75.017C165.545 70.8675 170.224 68.4583 173.298 71.6706ZM170.491 71.9384C172.096 71.9384 173.298 73.4107 173.298 75.2846C173.298 77.1585 172.096 78.6308 170.491 78.6308C168.887 78.6308 167.683 77.1585 167.683 75.2846C167.55 73.4107 168.887 71.9384 170.491 71.9384Z" fill="#610069"/>
<path fill-rule="evenodd" clip-rule="evenodd" d="M177.176 65.5137L179.314 65.6475V79.8356H177.176V65.5137Z" fill="#610069"/>
<path fill-rule="evenodd" clip-rule="evenodd" d="M181.72 67.7882V70.1974H180.383V71.9375L181.72 72.0714V77.2915C181.986 80.7716 184.392 79.9685 185.998 79.9685V78.2285C184.929 78.3624 183.858 78.63 183.725 76.8899V72.0714H186.131V70.1974H183.858V67.6543L181.72 67.7882Z" fill="#610069"/>
<path fill-rule="evenodd" clip-rule="evenodd" d="M186.936 79.8356H188.941V74.3476C189.877 71.4029 192.819 70.4659 193.085 74.2138V79.8356H195.09V72.8753C194.556 70.0644 191.214 68.9936 188.808 71.6706V65.7812H186.668L186.936 79.8356Z" fill="#610069"/>
<path fill-rule="evenodd" clip-rule="evenodd" d="M197.495 77.1582L196.426 82.2445L197.763 82.9137L199.501 77.8274L197.495 77.1582Z" fill="#610069"/>
<path fill-rule="evenodd" clip-rule="evenodd" d="M222.359 70.332H224.231L224.366 76.7567C225.568 79.0323 227.708 78.6307 228.509 76.7567V70.4659H230.515L230.648 75.9537C230.781 81.7092 222.359 81.0399 222.359 76.2214V70.332Z" fill="#610069"/>
<path fill-rule="evenodd" clip-rule="evenodd" d="M232.785 70.3318H234.792V71.6704C235.994 70.7334 237.063 69.6626 238.133 70.1979L237.599 72.6073C236.93 71.4026 235.593 72.741 234.925 73.4104V79.8351H232.785V70.3318Z" fill="#610069"/>
<path fill-rule="evenodd" clip-rule="evenodd" d="M245.886 79.8356H243.613L245.62 65.5137L247.356 65.6475L251.769 76.6232L255.779 65.6475H257.65L259.657 79.8356H257.517L256.18 69.7969L252.437 79.8356H250.966L246.957 69.663L245.886 79.8356Z" fill="#610069"/>
<path fill-rule="evenodd" clip-rule="evenodd" d="M260.859 70.332H262.864V79.7015L260.993 79.8354L260.859 70.332Z" fill="#610069"/>
<path fill-rule="evenodd" clip-rule="evenodd" d="M280.109 70.1982L282.249 70.3321V79.8355H280.109V70.1982Z" fill="#610069"/>
<path fill-rule="evenodd" clip-rule="evenodd" d="M269.685 72.7406L270.754 71.6697C270.086 70.0636 264.07 68.9927 265.139 74.0792C265.808 75.016 266.877 75.4176 267.68 75.8192C269.417 76.6223 268.882 77.9607 268.348 78.4961C267.68 79.1655 266.208 78.3622 265.407 77.2915L264.203 78.2285C265.673 80.6378 267.946 80.5039 269.685 79.5669C271.155 78.6299 271.823 76.0868 269.15 74.4806C268.481 73.9453 265.673 73.6775 267.412 71.8036C268.08 71.5359 269.15 71.8036 269.685 72.7406Z" fill="#610069"/>
<path fill-rule="evenodd" clip-rule="evenodd" d="M277.035 72.7406L278.105 71.6697C277.436 70.0636 271.42 68.9927 272.49 74.0792C273.158 75.016 274.227 75.4176 275.03 75.8192C276.768 76.6223 276.234 77.9607 275.698 78.4961C275.03 79.1655 273.56 78.3622 272.757 77.2915L271.555 78.2285C273.025 80.6378 275.298 80.5039 277.035 79.5669C278.505 78.6299 279.174 76.0868 276.5 74.4806C275.832 73.9453 273.025 73.6775 274.763 71.8036C275.564 71.5359 276.633 71.8036 277.035 72.7406Z" fill="#610069"/>
<path fill-rule="evenodd" clip-rule="evenodd" d="M297.358 70.3321H295.219V79.8355L297.225 79.7016V73.9459C298.427 71.0013 300.567 71.1352 301.368 73.2767V79.5677H303.508V72.8753C303.508 70.4658 299.764 67.9227 297.225 71.6705L297.358 70.3321Z" fill="#610069"/>
<path d="M281.716 69.2608C282.454 69.2608 283.051 68.6617 283.051 67.9224C283.051 67.1831 282.454 66.584 281.716 66.584C280.978 66.584 280.379 67.1831 280.379 67.9224C280.379 68.6617 280.978 69.2608 281.716 69.2608Z" fill="#610069"/>
<path d="M261.929 69.2608C262.668 69.2608 263.266 68.6617 263.266 67.9224C263.266 67.1831 262.668 66.584 261.929 66.584C261.191 66.584 260.594 67.1831 260.594 67.9224C260.594 68.6617 261.191 69.2608 261.929 69.2608Z" fill="#610069"/>
<path fill-rule="evenodd" clip-rule="evenodd" d="M76.6462 41.0191C79.0525 43.4284 81.1915 46.2392 82.7956 49.1839C79.9882 67.3875 65.8179 83.1818 48.1719 84.3864C89.2123 65.7813 49.5088 48.7824 56.9949 37.6729C60.8716 46.7746 71.9673 47.7115 76.6462 41.0191Z" fill="#4B4B4D" fill-opacity="0.1294"/>
<path fill-rule="evenodd" clip-rule="evenodd" d="M66.7548 33.791C69.2948 35.1294 71.701 36.7356 73.8398 38.4757C73.0378 39.2789 72.102 39.6804 70.8989 39.6804C68.4927 39.6804 66.6211 37.6726 66.6211 35.1294C66.6211 34.5941 66.6211 34.1925 66.7548 33.791Z" fill="#4B4B4D" fill-opacity="0.1294"/>
<path fill-rule="evenodd" clip-rule="evenodd" d="M45.2321 28.5703C49.6435 28.5703 53.9213 29.2397 57.9319 30.3104C46.0342 44.3647 18.0945 53.0649 35.2058 82.6457C26.1155 74.347 19.164 54.805 20.6345 35.3967C27.5859 31.1135 36.0079 28.5703 45.2321 28.5703Z" fill="#4B4B4D" fill-opacity="0.1294"/>
<path fill-rule="evenodd" clip-rule="evenodd" d="M5.125 54.9396C6.99655 49.1841 10.4723 43.9639 15.1512 39.6807C20.3648 41.2869 26.7815 37.8068 27.9847 31.7836C28.653 31.5158 29.3214 31.2482 29.9898 30.9805C36.4066 49.7194 2.31766 46.9085 20.2311 77.0248C13.4133 71.0015 7.79865 63.506 5.125 54.9396Z" fill="#4B4B4D" fill-opacity="0.1294"/>
</svg>
